:version 1.10
:name ASF
:units
  mass 1
  length 1
  angle deg
:documentation
  ASF file generated by Kaydara
:root
  axis xyz
  order  tx ty tz rx ry rz
  position 0 0 0
  orientation 0 0 0
:bonedata
  begin
    id 1
    name RightUpLegDummy
    direction -0.718183 -0.695806 0.00816078
    length 4.904
    axis 0 0 0 xyz
  end
  begin
    id 2
    name RightUpLeg
    direction 3.53989e-006 -0.995788 0.0916897
    length 17.4976
    axis -3.49089 -0.000906621 0.000287158 xyz
    dof rx ry rz
  end
  begin
    id 3
    name RightLeg
    direction 0.00371093 -0.995096 -0.0988418
    length 16.5821
    axis 3.68512 0.0193738 -0.131023 xyz
    dof rx ry rz
  end
  begin
    id 4
    name RightFoot
    direction 0.000791514 -0.46099 0.887405
    length 3.77069
    axis 4.84075e-005 -0.120479 -0.188788 xyz
    dof rx ry rz
  end
  begin
    id 5
    name RightToes
    direction 0.00124746 -0.014064 0.9999
    length 3.85082
    axis 0.00048216 0.542163 -0.142577 xyz
    dof rx ry rz
  end
  begin
    id 6
    name SpineDummy
    direction 8.36599e-015 1 5.97571e-016
    length 4.6813
    axis 0 0 0 xyz
  end
  begin
    id 7
    name Spine
    direction -4.63632e-008 0.999988 0.00495137
    length 10.1015
    axis -0.00138897 0.000121419 3.25764e-006 xyz
    dof rx ry rz
  end
  begin
    id 8
    name Spine1
    direction 0 0 0
    length 0
    axis -0.00138896 0.000121452 2.39764e-006 xyz
    dof rx ry rz
  end
  begin
    id 9
    name HEadDummy
    direction -3.91456e-008 0.999999 0.00127422
    length 3.43865
    axis -0.00138896 0.000121452 2.39764e-006 xyz
  end
  begin
    id 10
    name HEad
    direction -0.0222688 0.980941 0.193023
    length 5.12695
    axis -0.00138895 0.000121452 2.39764e-006 xyz
    dof rx ry rz
  end
  begin
    id 11
    name LeftShoulder1Dummy
    direction 0.998891 -0.0402508 -0.0244456
    length 3.5433
    axis -0.00138896 0.000121452 2.39764e-006 xyz
  end
  begin
    id 12
    name LeftShoulder1
    direction 0.99951 -0.000327743 0.0313091
    length 4.05031
    axis -0.00138896 0.000121452 2.39764e-006 xyz
    dof rx ry rz
  end
  begin
    id 13
    name LeftArm
    direction 0.998561 -0.00100054 -0.0536182
    length 10.3537
    axis -23.1894 0.134784 0.96751 xyz
    dof rx ry rz
  end
  begin
    id 14
    name LeftForeArm
    direction 0.998903 0.00866434 0.046012
    length 8.70632
    axis -9.91835 -0.06569 -0.177792 xyz
    dof rx ry rz
  end
  begin
    id 15
    name LeftHand
    direction 0.992938 -0.0411636 0.11126
    length 5.32135
    axis -0.00960227 -0.00340091 0.185174 xyz
    dof rx ry rz
  end
  begin
    id 16
    name RightShoulderDummy
    direction -0.998891 -0.0402509 -0.0244414
    length 3.5433
    axis -0.00138896 0.000121452 2.39764e-006 xyz
  end
  begin
    id 17
    name RightShoulder
    direction -0.99951 -0.000327827 0.0313133
    length 4.05031
    axis 0.215806 0.000203644 -0.00680151 xyz
    dof rx ry rz
  end
  begin
    id 18
    name RightArm
    direction -0.998573 -0.000999583 -0.053403
    length 10.3947
    axis -23.2009 -0.134239 -0.9641 xyz
    dof rx ry rz
  end
  begin
    id 19
    name RightForeArm
    direction -0.998898 0.00868026 0.0461306
    length 8.68355
    axis -9.92322 0.0658061 0.178869 xyz
    dof rx ry rz
  end
  begin
    id 20
    name RightHand
    direction -0.992843 -0.0414603 0.112003
    length 5.28593
    axis -0.00960634 0.00330671 -0.185226 xyz
    dof rx ry rz
  end
  begin
    id 21
    name LeftUpLegDummy
    direction 0.718183 -0.695806 0.00816078
    length 4.904
    axis 0 0 0 xyz
  end
  begin
    id 22
    name LeftUpLeg
    direction -6.8115e-006 -0.995793 0.0916336
    length 17.4976
    axis -3.48766 0.00143441 -0.000523914 xyz
    dof rx ry rz
  end
  begin
    id 23
    name LeftLeg
    direction -0.00601357 -0.995091 -0.0987824
    length 16.5821
    axis 3.68177 -0.00654038 -0.00028478 xyz
    dof rx ry rz
  end
  begin
    id 24
    name LeftFoot
    direction -0.00417578 -0.460984 0.887399
    length 3.77069
    axis 1.87232e-006 4.66002e-005 -8.1837e-006 xyz
    dof rx ry rz
  end
  begin
    id 25
    name LeftToes
    direction 0.00818058 -0.00485161 0.999955
    length 3.85048
    axis 1.06246e-005 4.65855e-005 -8.18502e-006 xyz
    dof rx ry rz
  end
:hierarchy
  begin
    root RightUpLegDummy SpineDummy LeftUpLegDummy
    RightUpLegDummy RightUpLeg
    RightUpLeg RightLeg
    RightLeg RightFoot
    RightFoot RightToes
    SpineDummy Spine
    Spine Spine1
    Spine1 HEadDummy LeftShoulder1Dummy RightShoulderDummy
    HEadDummy HEad
    LeftShoulder1Dummy LeftShoulder1
    LeftShoulder1 LeftArm
    LeftArm LeftForeArm
    LeftForeArm LeftHand
    RightShoulderDummy RightShoulder
    RightShoulder RightArm
    RightArm RightForeArm
    RightForeArm RightHand
    LeftUpLegDummy LeftUpLeg
    LeftUpLeg LeftLeg
    LeftLeg LeftFoot
    LeftFoot LeftToes
  end

:SAMPLES-PER-SECOND 30
:FULLY-SPECIFIED
:DEGREES
1
root  -6.14743 36.7905 12.002 -178.43 47.4433 170.339
RightUpLeg  -15.0204 -7.40415 -12.075
RightLeg  62.0276 -6.12802 -12.6947
RightFoot  17.3964 -5.67821 22.2016
RightToes  2.32829e-010 0 -3.6325e-017
Spine  9.95623 1.40878 -18.1278
Spine1  10.4257 -2.30124 5.83114
HEad  -20.8489 30.7029 -16.7256
LeftShoulder1  1.97918 -6.08274 -13.6891
LeftArm  14.7213 -17.6331 -72.8784
LeftForeArm  17.2148 -67.3778 -26.6459
LeftHand  -4.93479 -5.87141 48.2526
RightShoulder  0.885484 1.45186 10.6917
RightArm  -10.3075 -0.79614 68.1482
RightForeArm  -3.5427 50.6681 14.0158
RightHand  -3.17745 7.95341 -27.4527
LeftUpLeg  -26.5516 24.9597 -0.0500187
LeftLeg  43.6423 1.36537 1.84437
LeftFoot  -14.7579 -0.539447 -20.9636
LeftToes  -5.54824e-011 -8.71001e-011 8.3852e-012
2
root  -5.14242 35.842 12.1088 179.465 42.5251 170.056
RightUpLeg  -22.0022 -6.38142 -13.4284
RightLeg  74.3098 -2.57775 -11.657
RightFoot  20.8263 -4.99967 17.5967
RightToes  2.32829e-010 0 -3.6325e-017
Spine  12.4203 1.16505 -27.3219
Spine1  10.3198 -6.77914 14.4311
HEad  -20.1476 31.0841 -16.3727
LeftShoulder1  1.555 -4.32254 -12.8119
LeftArm  6.64932 -31.7171 -69.2486
LeftForeArm  19.2408 -65.9745 -24.4162
LeftHand  -4.59416 -5.8407 45.3857
RightShoulder  1.16432 2.4065 12.7137
RightArm  -11.6413 -8.95229 64.8307
RightForeArm  -12.1673 36.3288 8.79646
RightHand  -3.36214 7.9278 -29.0196
LeftUpLeg  -24.4198 16.5966 2.05003
LeftLeg  46.1931 3.79538 4.69586
LeftFoot  -20.0478 -1.46233 -20.3819
LeftToes  -5.54824e-011 -8.71001e-011 8.3852e-012
3
root  -3.93984 35.0242 12.1064 177.528 40.0315 170.258
RightUpLeg  -29.0564 -3.35749 -15.6817
RightLeg  81.5467 -1.22718 -13.1283
RightFoot  14.4894 -3.5408 15.8639
RightToes  2.32829e-010 0 -3.6325e-017
Spine  13.4266 2.04741 -33.5748
Spine1  11.4565 -9.07339 21.0796
HEad  -19.9481 30.893 -16.4811
LeftShoulder1  1.1321 -2.66283 -11.1631
LeftArm  -2.58282 -46.1784 -63.7608
LeftForeArm  12.5475 -59.5285 -18.4984
LeftHand  -4.09281 -5.27258 42.8553
RightShoulder  1.47334 3.13268 15.4736
RightArm  -9.9226 -17.4813 60.275
RightForeArm  -20.4839 25.7644 6.73002
RightHand  -3.19761 7.38198 -28.7735
LeftUpLeg  -21.8626 8.7159 4.70886
LeftLeg  48.8374 5.11205 6.69831
LeftFoot  -23.9394 -2.52105 -23.7986
LeftToes  -5.54824e-011 -8.71001e-011 8.3852e-012
4
root  -2.57569 34.4282 12.0131 176.223 39.2438 171.399
RightUpLeg  -35.463 -0.789776 -18.1861
RightLeg  81.8647 -1.58713 -16.48
RightFoot  6.04423 -2.60244 17.216
RightToes  2.32829e-010 0 -3.6325e-017
Spine  13.5687 3.0704 -36.0363
Spine1  12.7092 -9.59694 24.6436
HEad  -19.2664 30.9242 -17.3825
LeftShoulder1  0.830446 -1.36706 -9.69738
LeftArm  -11.3587 -55.8177 -56.2081
LeftForeArm  6.0213 -51.431 -13.5838
LeftHand  -3.6214 -4.6234 40.618
RightShoulder  1.76819 3.63965 18.264
RightArm  -12.5567 -27.1886 56.1023
RightForeArm  -22.7346 19.1458 7.98958
RightHand  -2.88639 6.72532 -27.4481
LeftUpLeg  -18.8885 4.86859 7.92482
LeftLeg  50.8612 4.739 6.70094
LeftFoot  -26.0387 -3.49715 -27.8528
LeftToes  -5.54824e-011 -8.71001e-011 8.3852e-012
5
root  -1.03705 34.0389 11.8808 176.123 37.3652 173.49
RightUpLeg  -39.3691 -1.72264 -20.3005
RightLeg  75.5372 -3.58369 -17.008
RightFoot  1.61849 -2.11661 18.5361
RightToes  2.32829e-010 0 -3.6325e-017
Spine  14.0124 2.92293 -35.6819
Spine1  13.1413 -10.0994 25.6866
HEad  -18.0016 31.5744 -17.922
LeftShoulder1  0.548757 0.145125 -8.89905
LeftArm  -17.9622 -58.0284 -48.4436
LeftForeArm  5.88142 -48.9592 -12.4589
LeftHand  -3.46697 -4.58189 39.1736
RightShoulder  1.95289 4.15852 19.0658
RightArm  -26.1073 -37.1954 54.7306
RightForeArm  -15.0661 13.5852 10.69
RightHand  -2.5815 6.10476 -25.9377
LeftUpLeg  -16.1449 2.61064 12.04
LeftLeg  51.1767 4.08364 5.90815
LeftFoot  -26.8221 -3.99576 -29.9408
LeftToes  -5.54824e-011 -8.71001e-011 8.3852e-012
6
root  0.710784 33.9629 11.7272 177.494 32.628 176.133
RightUpLeg  -39.0438 -5.66794 -22.1888
RightLeg  63.9973 -6.41701 -14.6733
RightFoot  1.91623 -2.16763 18.583
RightToes  2.32829e-010 0 -3.6325e-017
Spine  14.5437 1.57352 -34.1708
Spine1  13.0853 -11.3887 26.1244
HEad  -16.7789 32.0026 -16.3148
LeftShoulder1  0.277336 1.83553 -9.45127
LeftArm  -16.5012 -54.5214 -48.4977
LeftForeArm  11.3371 -53.7244 -14.5696
LeftHand  -3.45674 -4.8673 38.0522
RightShoulder  2.01551 4.70329 18.0397
RightArm  -39.2132 -45.0116 56.7161
RightForeArm  -11.4952 10.4068 9.9555
RightHand  -2.29901 5.33513 -24.8085
LeftUpLeg  -14.4303 -0.147744 16.9917
LeftLeg  48.2463 2.60824 3.63457
LeftFoot  -26.5923 -4.11761 -31.2019
LeftToes  -5.54824e-011 -8.71001e-011 8.3852e-012
7
root  2.73581 34.2179 11.6099 179.679 25.2547 177.981
RightUpLeg  -34.3411 -9.36007 -25.4105
RightLeg  49.3195 -9.80867 -12.2629
RightFoot  5.37443 -2.86202 19.5295
RightToes  2.32829e-010 0 -3.6325e-017
Spine  14.1594 0.332567 -32.7977
Spine1  12.9136 -12.2772 26.5257
HEad  -15.8726 30.9551 -12.8792
LeftShoulder1  0.277323 2.1326 -12.5847
LeftArm  -6.32094 -49.3219 -55.7545
LeftForeArm  16.0136 -59.1119 -17.5718
LeftHand  -3.25549 -4.89208 35.9109
RightShoulder  2.04506 4.95842 17.6114
RightArm  -48.1124 -48.6026 59.0745
RightForeArm  -14.3904 9.43791 7.60324
RightHand  -2.17559 4.85093 -24.5844
LeftUpLeg  -14.4791 -3.42602 21.9301
LeftLeg  42.0257 -0.575321 -0.0973662
LeftFoot  -23.7353 -3.59683 -33.6425
LeftToes  -5.54824e-011 -8.71001e-011 8.3852e-012
8
root  4.98437 34.7061 11.5502 -177.534 15.4809 178.14
RightUpLeg  -26.078 -10.8489 -30.7365
RightLeg  34.1731 -14.7597 -10.6514
RightFoot  11.2008 -3.60717 18.4886
RightToes  2.32829e-010 0 -3.6325e-017
Spine  12.9794 -0.106516 -30.7366
Spine1  12.2927 -11.5224 25.3436
HEad  -15.845 28.3825 -9.9592
LeftShoulder1  0.727714 0.490912 -17.3865
LeftArm  8.99029 -42.7042 -64.8846
LeftForeArm  14.2281 -59.4917 -18.1473
LeftHand  -2.94549 -4.82866 32.892
RightShoulder  2.10135 4.97136 18.2974
RightArm  -52.4055 -48.6541 59.5031
RightForeArm  -19.6516 9.19766 5.39122
RightHand  -2.21897 4.95927 -24.8032
LeftUpLeg  -17.2423 -7.76791 25.9525
LeftLeg  33.5612 -3.10646 -1.91876
LeftFoot  -15.9036 -1.39582 -36.1463
LeftToes  -5.54824e-011 -8.71001e-011 8.3852e-012
9
root  7.19623 35.1512 11.5503 -173.652 3.60907 176.565
RightUpLeg  -15.8472 -10.2304 -36.898
RightLeg  21.1322 -20.5952 -9.0667
RightFoot  18.6071 -3.99056 15.2997
RightToes  2.32829e-010 0 -3.6325e-017
Spine  11.384 -0.176948 -25.6256
Spine1  11.6315 -8.98924 20.0791
HEad  -17.538 25.1924 -8.03818
LeftShoulder1  1.23528 -1.11482 -20.394
LeftArm  23.2323 -33.9559 -71.8436
LeftForeArm  9.60858 -57.1987 -16.8251
LeftHand  -2.56399 -4.75192 29.0388
RightShoulder  2.06969 5.04074 17.6937
RightArm  -53.2191 -47.3084 58.1837
RightForeArm  -21.8966 10.0209 4.46156
RightHand  -2.2627 4.94057 -25.3162
LeftUpLeg  -23.5966 -12.7088 28.9668
LeftLeg  24.3798 -2.68332 -1.02346
LeftFoot  -4.30953 2.28327 -36.073
LeftToes  -5.54824e-011 -8.71001e-011 8.3852e-012
10
root  9.26643 35.1625 11.6952 -168.922 -7.38633 173.881
RightUpLeg  -7.40061 -8.69121 -41.0695
RightLeg  13.5165 -23.9091 -8.70287
RightFoot  24.4249 -5.37955 16.9768
RightToes  2.32829e-010 0 -3.6325e-017
Spine  9.44387 0.177557 -15.9416
Spine1  11.4556 -4.18248 8.10555
HEad  -20.2787 21.6329 -5.05429
LeftShoulder1  1.44058 -1.87195 -20.3744
LeftArm  32.3429 -25.3804 -72.9102
LeftForeArm  10.334 -57.9904 -17.3638
LeftHand  -2.18763 -4.63201 25.2852
RightShoulder  1.69812 4.30365 14.9516
RightArm  -51.3166 -44.9668 52.951
RightForeArm  -18.6406 12.3716 4.47727
RightHand  -2.3945 5.01431 -26.5341
LeftUpLeg  -31.6369 -13.8704 30.4009
LeftLeg  17.3094 -3.15139 -0.703789
LeftFoot  5.92622 5.45643 -35.0072
LeftToes  -5.54824e-011 -8.71001e-011 8.3852e-012
11
root  11.3321 34.6105 12.2104 -165.529 -12.8205 171.67
RightUpLeg  -5.25552 -5.3863 -43.3672
RightLeg  14.957 -24.5231 -9.72651
RightFoot  22.8917 -8.1761 26.9214
RightToes  2.32829e-010 0 -3.6325e-017
Spine  10.0843 1.12223 -4.87702
Spine1  9.93542 1.74851 -7.83199
HEad  -21.4393 19.0484 -1.32068
LeftShoulder1  1.60347 -2.59295 -19.8197
LeftArm  32.9601 -18.2058 -65.1933
LeftForeArm  17.1862 -63.4964 -21.7731
LeftHand  -2.13789 -4.91991 24.0459
RightShoulder  0.942296 1.76916 10.4842
RightArm  -47.1448 -36.7938 41.0396
RightForeArm  -11.6631 14.9831 4.36575
RightHand  -2.6351 5.76466 -27.2315
LeftUpLeg  -37.0249 -9.05766 29.0924
LeftLeg  16.0077 -8.15507 -2.30451
LeftFoot  9.6753 7.12436 -37.534
LeftToes  -5.54824e-011 -8.71001e-011 8.3852e-012
12
root  13.4792 33.6319 13.2017 -165.569 -11.4834 171.209
RightUpLeg  -9.86293 -1.73814 -45.0413
RightLeg  23.2419 -21.3546 -9.55296
RightFoot  11.9936 -8.58933 40.7885
RightToes  2.32829e-010 0 -3.6325e-017
Spine  14.8915 1.24365 1.77464
Spine1  6.5993 5.07415 -19.5218
HEad  -19.2412 19.2149 -0.325905
LeftShoulder1  1.80659 -3.21112 -20.4649
LeftArm  23.2799 -9.80014 -50.9149
LeftForeArm  25.9023 -70.3049 -30.6978
LeftHand  -2.52206 -5.36175 27.0241
RightShoulder  0.232422 -1.39523 2.5577
RightArm  -44.6737 -15.8468 29.9627
RightForeArm  -4.70896 17.9399 4.39714
RightHand  -2.78828 6.39813 -27.2516
LeftUpLeg  -38.2282 -2.91611 28.1657
LeftLeg  21.7249 -12.4234 -5.10652
LeftFoot  7.08808 7.12316 -42.3522
LeftToes  -5.54824e-011 -8.71001e-011 8.3852e-012
13
root  15.5338 32.4459 14.3934 -167.631 -6.67241 171.868
RightUpLeg  -17.7154 -3.44773 -44.5299
RightLeg  31.7762 -10.609 -7.23057
RightFoot  -2.47896 -4.34202 51.3802
RightToes  2.32829e-010 0 -3.6325e-017
Spine  20.5073 -0.298223 6.02556
Spine1  3.8855 5.89812 -27.2326
HEad  -15.4886 20.5679 -2.7181
LeftShoulder1  2.0781 -3.99612 -21.3516
LeftArm  9.35514 1.29976 -38.3301
LeftForeArm  30.5254 -73.3811 -38.1279
LeftHand  -2.92013 -4.88691 32.5098
RightShoulder  -0.0126057 -3.98262 -7.47826
RightArm  -44.1012 13.4051 22.6537
RightForeArm  0.444255 23.435 5.08848
RightHand  -3.00276 6.70742 -28.5445
LeftUpLeg  -36.4226 1.94572 29.2913
LeftLeg  30.2529 -10.86 -6.33494
LeftFoot  3.10826 5.8356 -43.9629
LeftToes  -5.54824e-011 -8.71001e-011 8.3852e-012
